<svg width="775" height="905" viewBox="0 0 775 905" fill="none" xmlns="http://www.w3.org/2000/svg">
<g clip-path="url(#clip0_21_5392)">
<path fill-rule="evenodd" clip-rule="evenodd" d="M387 0L484 394L773 252L545 452L774.5 653.5L485.5 508.5L387 904.5L288 508L1 652.5L228.5 452L0 251.5L288 396L387 0ZM298 401L387 45.5L475 401.5L387 445.5L298 401ZM75.5 302.5L281 406L237 444.5L75.5 302.5ZM292.5 411L246 452L292.5 493.5L375 452L292.5 411ZM237 460L282 499L72.5 604L237 460ZM387 458.5L298.5 504L386.5 859.5L475.5 503L387 458.5ZM399 452L481.5 411.5L527.5 452L480.5 493L399 452ZM536.5 444.5L492 405.5L703 299L536.5 444.5ZM536.5 460L703 605.5L492.5 499L536.5 460Z" fill="black"/>
</g>
<defs>
<clipPath id="clip0_21_5392">
<rect width="774.5" height="904.5" fill="white"/>
</clipPath>
</defs>
</svg>
